<?xml version="1.0" standalone="no"?>
<!DOCTYPE svg PUBLIC "-//W3C//DTD SVG 20010904//EN"
 "http://www.w3.org/TR/2001/REC-SVG-20010904/DTD/svg10.dtd">
<svg version="1.0" xmlns="http://www.w3.org/2000/svg"
 width="512.000000pt" height="512.000000pt" viewBox="0 0 512.000000 512.000000"
 preserveAspectRatio="xMidYMid meet">
<metadata>
Created by potrace 1.14, written by Peter Selinger 2001-2017
</metadata>
<g transform="translate(0.000000,512.000000) scale(0.100000,-0.100000)"
fill="#000000" stroke="none">
<path d="M1990 3955 c-270 -54 -515 -219 -663 -445 -65 -101 -99 -174 -134
-290 -20 -70 -26 -112 -29 -235 -3 -82 -7 -165 -10 -182 -5 -33 -6 -33 -59
-33 -243 0 -483 -182 -557 -425 -26 -83 -30 -239 -9 -325 39 -163 165 -321
311 -392 88 -43 223 -73 288 -64 57 8 121 45 156 91 15 19 30 35 35 35 4 0 34
-39 66 -87 75 -112 256 -294 360 -362 156 -102 325 -171 511 -207 131 -26 358
-23 491 5 343 72 649 276 839 558 31 46 58 83 61 83 4 0 29 -22 58 -49 66 -63
126 -79 233 -62 299 46 513 297 512 600 -1 203 -96 385 -262 498 -90 61 -181
92 -291 100 -68 5 -78 8 -82 27 -2 12 -6 91 -8 176 -5 181 -24 263 -91 406
-58 123 -115 204 -205 295 -150 149 -331 245 -533 284 -107 20 -887 20 -988 0z
m1001 -182 c300 -83 530 -306 613 -596 29 -99 0 -105 -72 -14 -198 246 -472
416 -782 483 -118 26 -400 26 -517 1 -319 -68 -593 -236 -783 -476 -64 -81
-100 -103 -100 -60 0 34 49 170 86 238 73 133 159 226 289 311 111 72 206 106
375 134 14 2 203 3 420 2 366 -2 400 -4 471 -23z m-316 -298 c407 -66 752
-354 892 -743 140 -390 69 -796 -194 -1122 -262 -323 -707 -480 -1116 -394
-226 47 -409 146 -578 314 -154 151 -249 316 -307 528 -23 88 -26 115 -26 282
-1 206 11 270 79 439 147 362 506 644 891 700 95 14 262 12 359 -4z m-1537
-1307 l2 -418 -26 -6 c-36 -9 -130 12 -194 44 l-55 27 -3 352 -2 351 55 28
c70 34 107 43 170 41 l50 -2 3 -417z m2898 383 l64 -30 -2 -353 -3 -353 -62
-31 c-71 -36 -174 -54 -198 -34 -13 11 -15 72 -15 410 0 219 3 406 7 416 10
27 128 13 209 -25z"/>
<path d="M1822 2373 c-41 -20 -72 -58 -72 -89 l0 -24 155 0 155 0 0 24 c0 32
-36 75 -76 92 -45 19 -121 17 -162 -3z"/>
<path d="M3013 2376 c-60 -27 -89 -107 -59 -165 51 -98 196 -90 235 13 28 75
-22 153 -105 162 -22 2 -53 -2 -71 -10z"/>
<path d="M2232 2017 c-9 -10 -9 -29 -1 -73 19 -105 74 -185 154 -227 53 -27
145 -28 199 -2 90 44 158 152 160 254 l1 56 -53 3 c-65 4 -78 -6 -86 -61 -9
-56 -37 -102 -76 -122 -67 -35 -132 13 -159 117 l-16 63 -56 3 c-38 2 -59 -1
-67 -11z"/>
<path d="M1317 993 c-4 -3 -7 -88 -7 -189 0 -157 2 -183 16 -188 28 -11 140
-6 152 6 13 13 18 331 6 362 -5 13 -22 16 -83 16 -43 0 -81 -3 -84 -7z"/>
<path d="M1637 973 c-11 -11 -8 -331 3 -338 6 -4 63 24 128 61 133 76 172 102
172 114 0 8 -275 170 -289 170 -4 0 -11 -3 -14 -7z"/>
<path d="M3167 944 c-4 -4 -7 -78 -7 -165 0 -134 2 -158 16 -163 23 -9 297 -7
312 2 9 7 12 47 10 168 l-3 159 -161 3 c-88 1 -163 -1 -167 -4z"/>
</g>
</svg>
